<svg id="visual" viewBox="0 40 900 160" width="900" height="600" xmlns="http://www.w3.org/2000/svg" xmlns:xlink="http://www.w3.org/1999/xlink" version="1.1"><path d="M0 128L21.5 131.7C43 135.3 86 142.7 128.8 143.3C171.7 144 214.3 138 257.2 134.5C300 131 343 130 385.8 139.7C428.7 149.3 471.3 169.7 514.2 167.7C557 165.7 600 141.3 642.8 128.8C685.7 116.3 728.3 115.7 771.2 122.3C814 129 857 143 878.5 150L900 157L900 0L878.5 0C857 0 814 0 771.2 0C728.3 0 685.7 0 642.8 0C600 0 557 0 514.2 0C471.3 0 428.7 0 385.8 0C343 0 300 0 257.2 0C214.3 0 171.7 0 128.8 0C86 0 43 0 21.5 0L0 0Z" fill="#ADE9FF" stroke-linecap="round" stroke-linejoin="miter"></path></svg>